solid ascii
  facet normal -9.999810e-001 6.160350e-003 0.000000e+000
    outer loop
      vertex   -1.908900e+001 3.625900e+001 0.000000e+000
      vertex   -1.915060e+001 2.626000e+001 0.000000e+000
      vertex   -1.908900e+001 3.625900e+001 1.000000e+000
    endloop
  endfacet
  facet normal -9.999810e-001 6.160350e-003 0.000000e+000
    outer loop
      vertex   -1.908900e+001 3.625900e+001 1.000000e+000
      vertex   -1.915060e+001 2.626000e+001 0.000000e+000
      vertex   -1.915060e+001 2.626000e+001 1.000000e+000
    endloop
  endfacet
  facet normal -1.000000e+000 0.000000e+000 0.000000e+000
    outer loop
      vertex   -1.908900e+001 4.736900e+001 0.000000e+000
      vertex   -1.908900e+001 3.625900e+001 0.000000e+000
      vertex   -1.908900e+001 4.736900e+001 1.000000e+000
    endloop
  endfacet
  facet normal -1.000000e+000 -0.000000e+000 0.000000e+000
    outer loop
      vertex   -1.908900e+001 4.736900e+001 1.000000e+000
      vertex   -1.908900e+001 3.625900e+001 0.000000e+000
      vertex   -1.908900e+001 3.625900e+001 1.000000e+000
    endloop
  endfacet
  facet normal -6.216579e-001 7.832889e-001 0.000000e+000
    outer loop
      vertex   -1.404947e-007 6.251900e+001 0.000000e+000
      vertex   -1.908900e+001 4.736900e+001 0.000000e+000
      vertex   -1.404947e-007 6.251900e+001 1.000000e+000
    endloop
  endfacet
  facet normal -6.216579e-001 7.832889e-001 0.000000e+000
    outer loop
      vertex   -1.404947e-007 6.251900e+001 1.000000e+000
      vertex   -1.908900e+001 4.736900e+001 0.000000e+000
      vertex   -1.908900e+001 4.736900e+001 1.000000e+000
    endloop
  endfacet
  facet normal 9.999995e-001 -9.852762e-004 0.000000e+000
    outer loop
      vertex   -6.159865e-002 1.404947e-007 0.000000e+000
      vertex   -3.079940e-002 3.125950e+001 0.000000e+000
      vertex   -6.159865e-002 1.404947e-007 1.000000e+000
    endloop
  endfacet
  facet normal 9.999995e-001 -9.852762e-004 0.000000e+000
    outer loop
      vertex   -6.159865e-002 1.404947e-007 1.000000e+000
      vertex   -3.079940e-002 3.125950e+001 0.000000e+000
      vertex   -3.079940e-002 3.125950e+001 1.000000e+000
    endloop
  endfacet
  facet normal 9.999995e-001 -9.852762e-004 0.000000e+000
    outer loop
      vertex   -3.079940e-002 3.125950e+001 1.000000e+000
      vertex   -3.079940e-002 3.125950e+001 0.000000e+000
      vertex   -1.404947e-007 6.251900e+001 0.000000e+000
    endloop
  endfacet
  facet normal 9.999995e-001 -9.852762e-004 0.000000e+000
    outer loop
      vertex   -1.404947e-007 6.251900e+001 1.000000e+000
      vertex   -3.079940e-002 3.125950e+001 1.000000e+000
      vertex   -1.404947e-007 6.251900e+001 0.000000e+000
    endloop
  endfacet
  facet normal -6.216579e-001 -7.832889e-001 0.000000e+000
    outer loop
      vertex   -1.915060e+001 1.515000e+001 0.000000e+000
      vertex   -6.159865e-002 1.404947e-007 0.000000e+000
      vertex   -1.915060e+001 1.515000e+001 1.000000e+000
    endloop
  endfacet
  facet normal -6.216579e-001 -7.832889e-001 1.521844e-015
    outer loop
      vertex   -1.915060e+001 1.515000e+001 1.000000e+000
      vertex   -6.159865e-002 1.404947e-007 0.000000e+000
      vertex   -6.159865e-002 1.404947e-007 1.000000e+000
    endloop
  endfacet
  facet normal -1.000000e+000 -1.598881e-015 0.000000e+000
    outer loop
      vertex   -1.915060e+001 2.626000e+001 0.000000e+000
      vertex   -1.915060e+001 1.515000e+001 0.000000e+000
      vertex   -1.915060e+001 2.626000e+001 1.000000e+000
    endloop
  endfacet
  facet normal -1.000000e+000 -1.598881e-015 0.000000e+000
    outer loop
      vertex   -1.915060e+001 2.626000e+001 1.000000e+000
      vertex   -1.915060e+001 1.515000e+001 0.000000e+000
      vertex   -1.915060e+001 1.515000e+001 1.000000e+000
    endloop
  endfacet
  facet normal -0.000000e+000 0.000000e+000 1.000000e+000
    outer loop
      vertex   -1.908900e+001 3.625900e+001 1.000000e+000
      vertex   -1.915060e+001 2.626000e+001 1.000000e+000
      vertex   -3.079940e-002 3.125950e+001 1.000000e+000
    endloop
  endfacet
  facet normal -0.000000e+000 0.000000e+000 1.000000e+000
    outer loop
      vertex   -1.908900e+001 4.736900e+001 1.000000e+000
      vertex   -3.079940e-002 3.125950e+001 1.000000e+000
      vertex   -1.404947e-007 6.251900e+001 1.000000e+000
    endloop
  endfacet
  facet normal 0.000000e+000 0.000000e+000 1.000000e+000
    outer loop
      vertex   -1.908900e+001 4.736900e+001 1.000000e+000
      vertex   -1.908900e+001 3.625900e+001 1.000000e+000
      vertex   -3.079940e-002 3.125950e+001 1.000000e+000
    endloop
  endfacet
  facet normal 0.000000e+000 -0.000000e+000 1.000000e+000
    outer loop
      vertex   -6.159865e-002 1.404947e-007 1.000000e+000
      vertex   -3.079940e-002 3.125950e+001 1.000000e+000
      vertex   -1.915060e+001 1.515000e+001 1.000000e+000
    endloop
  endfacet
  facet normal 0.000000e+000 -0.000000e+000 1.000000e+000
    outer loop
      vertex   -1.915060e+001 1.515000e+001 1.000000e+000
      vertex   -3.079940e-002 3.125950e+001 1.000000e+000
      vertex   -1.915060e+001 2.626000e+001 1.000000e+000
    endloop
  endfacet
  facet normal 0.000000e+000 0.000000e+000 -1.000000e+000
    outer loop
      vertex   -6.159865e-002 1.404947e-007 0.000000e+000
      vertex   -1.915060e+001 1.515000e+001 0.000000e+000
      vertex   -3.079940e-002 3.125950e+001 0.000000e+000
    endloop
  endfacet
  facet normal -0.000000e+000 0.000000e+000 -1.000000e+000
    outer loop
      vertex   -3.079940e-002 3.125950e+001 0.000000e+000
      vertex   -1.915060e+001 1.515000e+001 0.000000e+000
      vertex   -1.915060e+001 2.626000e+001 0.000000e+000
    endloop
  endfacet
  facet normal 0.000000e+000 -0.000000e+000 -1.000000e+000
    outer loop
      vertex   -1.908900e+001 3.625900e+001 0.000000e+000
      vertex   -3.079940e-002 3.125950e+001 0.000000e+000
      vertex   -1.915060e+001 2.626000e+001 0.000000e+000
    endloop
  endfacet
  facet normal 0.000000e+000 0.000000e+000 -1.000000e+000
    outer loop
      vertex   -1.908900e+001 3.625900e+001 0.000000e+000
      vertex   -1.908900e+001 4.736900e+001 0.000000e+000
      vertex   -3.079940e-002 3.125950e+001 0.000000e+000
    endloop
  endfacet
  facet normal 0.000000e+000 0.000000e+000 -1.000000e+000
    outer loop
      vertex   -3.079940e-002 3.125950e+001 0.000000e+000
      vertex   -1.908900e+001 4.736900e+001 0.000000e+000
      vertex   -1.404947e-007 6.251900e+001 0.000000e+000
    endloop
  endfacet
endsolid
