solid ascii
  facet normal -1.000000e+000 0.000000e+000 0.000000e+000
    outer loop
      vertex   -2.000000e+001 2.600000e+001 0.000000e+000
      vertex   -2.000000e+001 1.500000e+001 0.000000e+000
      vertex   -2.000000e+001 2.600000e+001 6.000000e-001
    endloop
  endfacet
  facet normal -1.000000e+000 -0.000000e+000 0.000000e+000
    outer loop
      vertex   -2.000000e+001 2.600000e+001 6.000000e-001
      vertex   -2.000000e+001 1.500000e+001 0.000000e+000
      vertex   -2.000000e+001 1.500000e+001 6.000000e-001
    endloop
  endfacet
  facet normal 0.000000e+000 1.000000e+000 -0.000000e+000
    outer loop
      vertex   -1.750000e+001 2.600000e+001 0.000000e+000
      vertex   -2.000000e+001 2.600000e+001 0.000000e+000
      vertex   -1.750000e+001 2.600000e+001 6.000000e-001
    endloop
  endfacet
  facet normal 0.000000e+000 1.000000e+000 -0.000000e+000
    outer loop
      vertex   -1.750000e+001 2.600000e+001 6.000000e-001
      vertex   -2.000000e+001 2.600000e+001 0.000000e+000
      vertex   -2.000000e+001 2.600000e+001 6.000000e-001
    endloop
  endfacet
  facet normal -1.000000e+000 0.000000e+000 0.000000e+000
    outer loop
      vertex   -1.750000e+001 2.900000e+001 0.000000e+000
      vertex   -1.750000e+001 2.600000e+001 0.000000e+000
      vertex   -1.750000e+001 2.900000e+001 6.000000e-001
    endloop
  endfacet
  facet normal -1.000000e+000 -0.000000e+000 0.000000e+000
    outer loop
      vertex   -1.750000e+001 2.900000e+001 6.000000e-001
      vertex   -1.750000e+001 2.600000e+001 0.000000e+000
      vertex   -1.750000e+001 2.600000e+001 6.000000e-001
    endloop
  endfacet
  facet normal 0.000000e+000 -1.000000e+000 0.000000e+000
    outer loop
      vertex   -2.000000e+001 2.900000e+001 0.000000e+000
      vertex   -1.750000e+001 2.900000e+001 0.000000e+000
      vertex   -2.000000e+001 2.900000e+001 6.000000e-001
    endloop
  endfacet
  facet normal 0.000000e+000 -1.000000e+000 0.000000e+000
    outer loop
      vertex   -2.000000e+001 2.900000e+001 6.000000e-001
      vertex   -1.750000e+001 2.900000e+001 0.000000e+000
      vertex   -1.750000e+001 2.900000e+001 6.000000e-001
    endloop
  endfacet
  facet normal -1.000000e+000 0.000000e+000 0.000000e+000
    outer loop
      vertex   -2.000000e+001 3.200000e+001 0.000000e+000
      vertex   -2.000000e+001 2.900000e+001 0.000000e+000
      vertex   -2.000000e+001 3.200000e+001 6.000000e-001
    endloop
  endfacet
  facet normal -1.000000e+000 -0.000000e+000 0.000000e+000
    outer loop
      vertex   -2.000000e+001 3.200000e+001 6.000000e-001
      vertex   -2.000000e+001 2.900000e+001 0.000000e+000
      vertex   -2.000000e+001 2.900000e+001 6.000000e-001
    endloop
  endfacet
  facet normal 0.000000e+000 1.000000e+000 -0.000000e+000
    outer loop
      vertex   -1.750000e+001 3.200000e+001 0.000000e+000
      vertex   -2.000000e+001 3.200000e+001 0.000000e+000
      vertex   -1.750000e+001 3.200000e+001 6.000000e-001
    endloop
  endfacet
  facet normal 0.000000e+000 1.000000e+000 -0.000000e+000
    outer loop
      vertex   -1.750000e+001 3.200000e+001 6.000000e-001
      vertex   -2.000000e+001 3.200000e+001 0.000000e+000
      vertex   -2.000000e+001 3.200000e+001 6.000000e-001
    endloop
  endfacet
  facet normal -1.000000e+000 0.000000e+000 0.000000e+000
    outer loop
      vertex   -1.750000e+001 3.500000e+001 0.000000e+000
      vertex   -1.750000e+001 3.200000e+001 0.000000e+000
      vertex   -1.750000e+001 3.500000e+001 6.000000e-001
    endloop
  endfacet
  facet normal -1.000000e+000 -0.000000e+000 0.000000e+000
    outer loop
      vertex   -1.750000e+001 3.500000e+001 6.000000e-001
      vertex   -1.750000e+001 3.200000e+001 0.000000e+000
      vertex   -1.750000e+001 3.200000e+001 6.000000e-001
    endloop
  endfacet
  facet normal 0.000000e+000 -1.000000e+000 0.000000e+000
    outer loop
      vertex   -2.000000e+001 3.500000e+001 0.000000e+000
      vertex   -1.750000e+001 3.500000e+001 0.000000e+000
      vertex   -2.000000e+001 3.500000e+001 6.000000e-001
    endloop
  endfacet
  facet normal 0.000000e+000 -1.000000e+000 0.000000e+000
    outer loop
      vertex   -2.000000e+001 3.500000e+001 6.000000e-001
      vertex   -1.750000e+001 3.500000e+001 0.000000e+000
      vertex   -1.750000e+001 3.500000e+001 6.000000e-001
    endloop
  endfacet
  facet normal -1.000000e+000 -6.459479e-016 0.000000e+000
    outer loop
      vertex   -2.000000e+001 4.600000e+001 0.000000e+000
      vertex   -2.000000e+001 3.500000e+001 0.000000e+000
      vertex   -2.000000e+001 4.600000e+001 6.000000e-001
    endloop
  endfacet
  facet normal -1.000000e+000 -6.459479e-016 0.000000e+000
    outer loop
      vertex   -2.000000e+001 4.600000e+001 6.000000e-001
      vertex   -2.000000e+001 3.500000e+001 0.000000e+000
      vertex   -2.000000e+001 3.500000e+001 6.000000e-001
    endloop
  endfacet
  facet normal -6.000000e-001 8.000000e-001 0.000000e+000
    outer loop
      vertex   0.000000e+000 6.100000e+001 0.000000e+000
      vertex   -2.000000e+001 4.600000e+001 0.000000e+000
      vertex   0.000000e+000 6.100000e+001 6.000000e-001
    endloop
  endfacet
  facet normal -6.000000e-001 8.000000e-001 0.000000e+000
    outer loop
      vertex   0.000000e+000 6.100000e+001 6.000000e-001
      vertex   -2.000000e+001 4.600000e+001 0.000000e+000
      vertex   -2.000000e+001 4.600000e+001 6.000000e-001
    endloop
  endfacet
  facet normal 1.000000e+000 0.000000e+000 -0.000000e+000
    outer loop
      vertex   0.000000e+000 2.220446e-015 0.000000e+000
      vertex   0.000000e+000 3.050000e+001 0.000000e+000
      vertex   0.000000e+000 2.220446e-015 6.000000e-001
    endloop
  endfacet
  facet normal 1.000000e+000 -0.000000e+000 0.000000e+000
    outer loop
      vertex   0.000000e+000 2.220446e-015 6.000000e-001
      vertex   0.000000e+000 3.050000e+001 0.000000e+000
      vertex   0.000000e+000 3.050000e+001 6.000000e-001
    endloop
  endfacet
  facet normal 1.000000e+000 -0.000000e+000 0.000000e+000
    outer loop
      vertex   0.000000e+000 3.050000e+001 6.000000e-001
      vertex   0.000000e+000 3.050000e+001 0.000000e+000
      vertex   0.000000e+000 6.100000e+001 0.000000e+000
    endloop
  endfacet
  facet normal 1.000000e+000 0.000000e+000 0.000000e+000
    outer loop
      vertex   0.000000e+000 6.100000e+001 6.000000e-001
      vertex   0.000000e+000 3.050000e+001 6.000000e-001
      vertex   0.000000e+000 6.100000e+001 0.000000e+000
    endloop
  endfacet
  facet normal -6.000000e-001 -8.000000e-001 0.000000e+000
    outer loop
      vertex   -2.000000e+001 1.500000e+001 0.000000e+000
      vertex   0.000000e+000 2.220446e-015 0.000000e+000
      vertex   -2.000000e+001 1.500000e+001 6.000000e-001
    endloop
  endfacet
  facet normal -6.000000e-001 -8.000000e-001 0.000000e+000
    outer loop
      vertex   -2.000000e+001 1.500000e+001 6.000000e-001
      vertex   0.000000e+000 2.220446e-015 0.000000e+000
      vertex   0.000000e+000 2.220446e-015 6.000000e-001
    endloop
  endfacet
  facet normal -0.000000e+000 0.000000e+000 1.000000e+000
    outer loop
      vertex   -2.000000e+001 2.600000e+001 6.000000e-001
      vertex   -2.000000e+001 1.500000e+001 6.000000e-001
      vertex   -1.750000e+001 2.600000e+001 6.000000e-001
    endloop
  endfacet
  facet normal 0.000000e+000 0.000000e+000 1.000000e+000
    outer loop
      vertex   -1.750000e+001 2.600000e+001 6.000000e-001
      vertex   -2.000000e+001 1.500000e+001 6.000000e-001
      vertex   0.000000e+000 2.220446e-015 6.000000e-001
    endloop
  endfacet
  facet normal 0.000000e+000 0.000000e+000 1.000000e+000
    outer loop
      vertex   0.000000e+000 3.050000e+001 6.000000e-001
      vertex   -1.750000e+001 2.600000e+001 6.000000e-001
      vertex   0.000000e+000 2.220446e-015 6.000000e-001
    endloop
  endfacet
  facet normal 0.000000e+000 0.000000e+000 1.000000e+000
    outer loop
      vertex   0.000000e+000 3.050000e+001 6.000000e-001
      vertex   -1.750000e+001 2.900000e+001 6.000000e-001
      vertex   -1.750000e+001 2.600000e+001 6.000000e-001
    endloop
  endfacet
  facet normal 0.000000e+000 0.000000e+000 1.000000e+000
    outer loop
      vertex   0.000000e+000 3.050000e+001 6.000000e-001
      vertex   -1.750000e+001 3.200000e+001 6.000000e-001
      vertex   -1.750000e+001 2.900000e+001 6.000000e-001
    endloop
  endfacet
  facet normal 0.000000e+000 0.000000e+000 1.000000e+000
    outer loop
      vertex   0.000000e+000 3.050000e+001 6.000000e-001
      vertex   -1.750000e+001 3.500000e+001 6.000000e-001
      vertex   -1.750000e+001 3.200000e+001 6.000000e-001
    endloop
  endfacet
  facet normal 0.000000e+000 -0.000000e+000 1.000000e+000
    outer loop
      vertex   0.000000e+000 3.050000e+001 6.000000e-001
      vertex   0.000000e+000 6.100000e+001 6.000000e-001
      vertex   -1.750000e+001 3.500000e+001 6.000000e-001
    endloop
  endfacet
  facet normal 0.000000e+000 -0.000000e+000 1.000000e+000
    outer loop
      vertex   -1.750000e+001 3.500000e+001 6.000000e-001
      vertex   0.000000e+000 6.100000e+001 6.000000e-001
      vertex   -2.000000e+001 4.600000e+001 6.000000e-001
    endloop
  endfacet
  facet normal 0.000000e+000 -0.000000e+000 1.000000e+000
    outer loop
      vertex   -2.000000e+001 3.500000e+001 6.000000e-001
      vertex   -1.750000e+001 3.500000e+001 6.000000e-001
      vertex   -2.000000e+001 4.600000e+001 6.000000e-001
    endloop
  endfacet
  facet normal -0.000000e+000 0.000000e+000 1.000000e+000
    outer loop
      vertex   -2.000000e+001 3.200000e+001 6.000000e-001
      vertex   -2.000000e+001 2.900000e+001 6.000000e-001
      vertex   -1.750000e+001 3.200000e+001 6.000000e-001
    endloop
  endfacet
  facet normal -0.000000e+000 0.000000e+000 1.000000e+000
    outer loop
      vertex   -1.750000e+001 3.200000e+001 6.000000e-001
      vertex   -2.000000e+001 2.900000e+001 6.000000e-001
      vertex   -1.750000e+001 2.900000e+001 6.000000e-001
    endloop
  endfacet
  facet normal -0.000000e+000 -0.000000e+000 -1.000000e+000
    outer loop
      vertex   0.000000e+000 3.050000e+001 0.000000e+000
      vertex   0.000000e+000 2.220446e-015 0.000000e+000
      vertex   -1.750000e+001 2.600000e+001 0.000000e+000
    endloop
  endfacet
  facet normal 0.000000e+000 -0.000000e+000 -1.000000e+000
    outer loop
      vertex   -1.750000e+001 2.900000e+001 0.000000e+000
      vertex   0.000000e+000 3.050000e+001 0.000000e+000
      vertex   -1.750000e+001 2.600000e+001 0.000000e+000
    endloop
  endfacet
  facet normal 0.000000e+000 0.000000e+000 -1.000000e+000
    outer loop
      vertex   -1.750000e+001 2.900000e+001 0.000000e+000
      vertex   -1.750000e+001 3.200000e+001 0.000000e+000
      vertex   0.000000e+000 3.050000e+001 0.000000e+000
    endloop
  endfacet
  facet normal 0.000000e+000 0.000000e+000 -1.000000e+000
    outer loop
      vertex   -1.750000e+001 2.900000e+001 0.000000e+000
      vertex   -2.000000e+001 2.900000e+001 0.000000e+000
      vertex   -1.750000e+001 3.200000e+001 0.000000e+000
    endloop
  endfacet
  facet normal -0.000000e+000 0.000000e+000 -1.000000e+000
    outer loop
      vertex   -1.750000e+001 3.200000e+001 0.000000e+000
      vertex   -2.000000e+001 2.900000e+001 0.000000e+000
      vertex   -2.000000e+001 3.200000e+001 0.000000e+000
    endloop
  endfacet
  facet normal 0.000000e+000 -0.000000e+000 -1.000000e+000
    outer loop
      vertex   -2.000000e+001 2.600000e+001 0.000000e+000
      vertex   -1.750000e+001 2.600000e+001 0.000000e+000
      vertex   -2.000000e+001 1.500000e+001 0.000000e+000
    endloop
  endfacet
  facet normal 0.000000e+000 0.000000e+000 -1.000000e+000
    outer loop
      vertex   -2.000000e+001 1.500000e+001 0.000000e+000
      vertex   -1.750000e+001 2.600000e+001 0.000000e+000
      vertex   0.000000e+000 2.220446e-015 0.000000e+000
    endloop
  endfacet
  facet normal 0.000000e+000 0.000000e+000 -1.000000e+000
    outer loop
      vertex   -1.750000e+001 3.200000e+001 0.000000e+000
      vertex   -1.750000e+001 3.500000e+001 0.000000e+000
      vertex   0.000000e+000 3.050000e+001 0.000000e+000
    endloop
  endfacet
  facet normal 0.000000e+000 0.000000e+000 -1.000000e+000
    outer loop
      vertex   0.000000e+000 3.050000e+001 0.000000e+000
      vertex   -1.750000e+001 3.500000e+001 0.000000e+000
      vertex   0.000000e+000 6.100000e+001 0.000000e+000
    endloop
  endfacet
  facet normal -0.000000e+000 0.000000e+000 -1.000000e+000
    outer loop
      vertex   0.000000e+000 6.100000e+001 0.000000e+000
      vertex   -1.750000e+001 3.500000e+001 0.000000e+000
      vertex   -2.000000e+001 4.600000e+001 0.000000e+000
    endloop
  endfacet
  facet normal -0.000000e+000 -0.000000e+000 -1.000000e+000
    outer loop
      vertex   -2.000000e+001 4.600000e+001 0.000000e+000
      vertex   -1.750000e+001 3.500000e+001 0.000000e+000
      vertex   -2.000000e+001 3.500000e+001 0.000000e+000
    endloop
  endfacet
endsolid
