solid ascii
  facet normal -2.842171e-015 1.000000e+000 0.000000e+000
    outer loop
      vertex   -1.646099e+001 2.600000e+001 0.000000e+000
      vertex   -1.896099e+001 2.600000e+001 0.000000e+000
      vertex   -1.646099e+001 2.600000e+001 6.000000e-001
    endloop
  endfacet
  facet normal -2.842171e-015 1.000000e+000 0.000000e+000
    outer loop
      vertex   -1.646099e+001 2.600000e+001 6.000000e-001
      vertex   -1.896099e+001 2.600000e+001 0.000000e+000
      vertex   -1.896099e+001 2.600000e+001 6.000000e-001
    endloop
  endfacet
  facet normal -1.000000e+000 0.000000e+000 0.000000e+000
    outer loop
      vertex   -1.646099e+001 2.930000e+001 0.000000e+000
      vertex   -1.646099e+001 2.600000e+001 0.000000e+000
      vertex   -1.646099e+001 2.930000e+001 6.000000e-001
    endloop
  endfacet
  facet normal -1.000000e+000 -0.000000e+000 0.000000e+000
    outer loop
      vertex   -1.646099e+001 2.930000e+001 6.000000e-001
      vertex   -1.646099e+001 2.600000e+001 0.000000e+000
      vertex   -1.646099e+001 2.600000e+001 6.000000e-001
    endloop
  endfacet
  facet normal 0.000000e+000 -1.000000e+000 0.000000e+000
    outer loop
      vertex   -1.890000e+001 2.930000e+001 0.000000e+000
      vertex   -1.646099e+001 2.930000e+001 0.000000e+000
      vertex   -1.890000e+001 2.930000e+001 6.000000e-001
    endloop
  endfacet
  facet normal 0.000000e+000 -1.000000e+000 0.000000e+000
    outer loop
      vertex   -1.890000e+001 2.930000e+001 6.000000e-001
      vertex   -1.646099e+001 2.930000e+001 0.000000e+000
      vertex   -1.646099e+001 2.930000e+001 6.000000e-001
    endloop
  endfacet
  facet normal -1.000000e+000 0.000000e+000 0.000000e+000
    outer loop
      vertex   -1.890000e+001 3.260000e+001 0.000000e+000
      vertex   -1.890000e+001 2.930000e+001 0.000000e+000
      vertex   -1.890000e+001 3.260000e+001 6.000000e-001
    endloop
  endfacet
  facet normal -1.000000e+000 -0.000000e+000 0.000000e+000
    outer loop
      vertex   -1.890000e+001 3.260000e+001 6.000000e-001
      vertex   -1.890000e+001 2.930000e+001 0.000000e+000
      vertex   -1.890000e+001 2.930000e+001 6.000000e-001
    endloop
  endfacet
  facet normal 0.000000e+000 1.000000e+000 -0.000000e+000
    outer loop
      vertex   -1.640000e+001 3.260000e+001 0.000000e+000
      vertex   -1.890000e+001 3.260000e+001 0.000000e+000
      vertex   -1.640000e+001 3.260000e+001 6.000000e-001
    endloop
  endfacet
  facet normal 0.000000e+000 1.000000e+000 -0.000000e+000
    outer loop
      vertex   -1.640000e+001 3.260000e+001 6.000000e-001
      vertex   -1.890000e+001 3.260000e+001 0.000000e+000
      vertex   -1.890000e+001 3.260000e+001 6.000000e-001
    endloop
  endfacet
  facet normal -1.000000e+000 -1.076580e-015 0.000000e+000
    outer loop
      vertex   -1.640000e+001 3.590000e+001 0.000000e+000
      vertex   -1.640000e+001 3.260000e+001 0.000000e+000
      vertex   -1.640000e+001 3.590000e+001 6.000000e-001
    endloop
  endfacet
  facet normal -1.000000e+000 -1.076580e-015 0.000000e+000
    outer loop
      vertex   -1.640000e+001 3.590000e+001 6.000000e-001
      vertex   -1.640000e+001 3.260000e+001 0.000000e+000
      vertex   -1.640000e+001 3.260000e+001 6.000000e-001
    endloop
  endfacet
  facet normal 0.000000e+000 -1.000000e+000 0.000000e+000
    outer loop
      vertex   -1.890000e+001 3.590000e+001 0.000000e+000
      vertex   -1.640000e+001 3.590000e+001 0.000000e+000
      vertex   -1.890000e+001 3.590000e+001 6.000000e-001
    endloop
  endfacet
  facet normal 0.000000e+000 -1.000000e+000 0.000000e+000
    outer loop
      vertex   -1.890000e+001 3.590000e+001 6.000000e-001
      vertex   -1.640000e+001 3.590000e+001 0.000000e+000
      vertex   -1.640000e+001 3.590000e+001 6.000000e-001
    endloop
  endfacet
  facet normal -1.000000e+000 0.000000e+000 0.000000e+000
    outer loop
      vertex   -1.890000e+001 4.690000e+001 0.000000e+000
      vertex   -1.890000e+001 3.590000e+001 0.000000e+000
      vertex   -1.890000e+001 4.690000e+001 6.000000e-001
    endloop
  endfacet
  facet normal -1.000000e+000 -0.000000e+000 0.000000e+000
    outer loop
      vertex   -1.890000e+001 4.690000e+001 6.000000e-001
      vertex   -1.890000e+001 3.590000e+001 0.000000e+000
      vertex   -1.890000e+001 3.590000e+001 6.000000e-001
    endloop
  endfacet
  facet normal -6.216579e-001 7.832889e-001 0.000000e+000
    outer loop
      vertex   -1.404947e-007 6.190000e+001 0.000000e+000
      vertex   -1.890000e+001 4.690000e+001 0.000000e+000
      vertex   -1.404947e-007 6.190000e+001 6.000000e-001
    endloop
  endfacet
  facet normal -6.216579e-001 7.832889e-001 0.000000e+000
    outer loop
      vertex   -1.404947e-007 6.190000e+001 6.000000e-001
      vertex   -1.890000e+001 4.690000e+001 0.000000e+000
      vertex   -1.890000e+001 4.690000e+001 6.000000e-001
    endloop
  endfacet
  facet normal 9.999995e-001 -9.852762e-004 0.000000e+000
    outer loop
      vertex   -6.098877e-002 1.404947e-007 0.000000e+000
      vertex   -3.049445e-002 3.095000e+001 0.000000e+000
      vertex   -6.098877e-002 1.404947e-007 6.000000e-001
    endloop
  endfacet
  facet normal 9.999995e-001 -9.852762e-004 0.000000e+000
    outer loop
      vertex   -6.098877e-002 1.404947e-007 6.000000e-001
      vertex   -3.049445e-002 3.095000e+001 0.000000e+000
      vertex   -3.049445e-002 3.095000e+001 6.000000e-001
    endloop
  endfacet
  facet normal 9.999995e-001 -9.852762e-004 0.000000e+000
    outer loop
      vertex   -3.049445e-002 3.095000e+001 6.000000e-001
      vertex   -3.049445e-002 3.095000e+001 0.000000e+000
      vertex   -1.404947e-007 6.190000e+001 0.000000e+000
    endloop
  endfacet
  facet normal 9.999995e-001 -9.852762e-004 0.000000e+000
    outer loop
      vertex   -1.404947e-007 6.190000e+001 6.000000e-001
      vertex   -3.049445e-002 3.095000e+001 6.000000e-001
      vertex   -1.404947e-007 6.190000e+001 0.000000e+000
    endloop
  endfacet
  facet normal -6.216579e-001 -7.832889e-001 0.000000e+000
    outer loop
      vertex   -1.896099e+001 1.500000e+001 0.000000e+000
      vertex   -6.098877e-002 1.404947e-007 0.000000e+000
      vertex   -1.896099e+001 1.500000e+001 6.000000e-001
    endloop
  endfacet
  facet normal -6.216579e-001 -7.832889e-001 2.355235e-015
    outer loop
      vertex   -1.896099e+001 1.500000e+001 6.000000e-001
      vertex   -6.098877e-002 1.404947e-007 0.000000e+000
      vertex   -6.098877e-002 1.404947e-007 6.000000e-001
    endloop
  endfacet
  facet normal -1.000000e+000 -1.614870e-015 0.000000e+000
    outer loop
      vertex   -1.896099e+001 2.600000e+001 0.000000e+000
      vertex   -1.896099e+001 1.500000e+001 0.000000e+000
      vertex   -1.896099e+001 2.600000e+001 6.000000e-001
    endloop
  endfacet
  facet normal -1.000000e+000 -1.614870e-015 0.000000e+000
    outer loop
      vertex   -1.896099e+001 2.600000e+001 6.000000e-001
      vertex   -1.896099e+001 1.500000e+001 0.000000e+000
      vertex   -1.896099e+001 1.500000e+001 6.000000e-001
    endloop
  endfacet
  facet normal -0.000000e+000 0.000000e+000 1.000000e+000
    outer loop
      vertex   -1.896099e+001 2.600000e+001 6.000000e-001
      vertex   -1.896099e+001 1.500000e+001 6.000000e-001
      vertex   -1.646099e+001 2.600000e+001 6.000000e-001
    endloop
  endfacet
  facet normal 0.000000e+000 0.000000e+000 1.000000e+000
    outer loop
      vertex   -1.646099e+001 2.600000e+001 6.000000e-001
      vertex   -1.896099e+001 1.500000e+001 6.000000e-001
      vertex   -6.098877e-002 1.404947e-007 6.000000e-001
    endloop
  endfacet
  facet normal 0.000000e+000 0.000000e+000 1.000000e+000
    outer loop
      vertex   -3.049445e-002 3.095000e+001 6.000000e-001
      vertex   -1.646099e+001 2.600000e+001 6.000000e-001
      vertex   -6.098877e-002 1.404947e-007 6.000000e-001
    endloop
  endfacet
  facet normal 0.000000e+000 0.000000e+000 1.000000e+000
    outer loop
      vertex   -3.049445e-002 3.095000e+001 6.000000e-001
      vertex   -1.646099e+001 2.930000e+001 6.000000e-001
      vertex   -1.646099e+001 2.600000e+001 6.000000e-001
    endloop
  endfacet
  facet normal 0.000000e+000 0.000000e+000 1.000000e+000
    outer loop
      vertex   -3.049445e-002 3.095000e+001 6.000000e-001
      vertex   -1.640000e+001 3.260000e+001 6.000000e-001
      vertex   -1.646099e+001 2.930000e+001 6.000000e-001
    endloop
  endfacet
  facet normal 0.000000e+000 0.000000e+000 1.000000e+000
    outer loop
      vertex   -3.049445e-002 3.095000e+001 6.000000e-001
      vertex   -1.640000e+001 3.590000e+001 6.000000e-001
      vertex   -1.640000e+001 3.260000e+001 6.000000e-001
    endloop
  endfacet
  facet normal 0.000000e+000 -0.000000e+000 1.000000e+000
    outer loop
      vertex   -3.049445e-002 3.095000e+001 6.000000e-001
      vertex   -1.404947e-007 6.190000e+001 6.000000e-001
      vertex   -1.640000e+001 3.590000e+001 6.000000e-001
    endloop
  endfacet
  facet normal 0.000000e+000 -0.000000e+000 1.000000e+000
    outer loop
      vertex   -1.640000e+001 3.590000e+001 6.000000e-001
      vertex   -1.404947e-007 6.190000e+001 6.000000e-001
      vertex   -1.890000e+001 4.690000e+001 6.000000e-001
    endloop
  endfacet
  facet normal 0.000000e+000 -0.000000e+000 1.000000e+000
    outer loop
      vertex   -1.890000e+001 3.590000e+001 6.000000e-001
      vertex   -1.640000e+001 3.590000e+001 6.000000e-001
      vertex   -1.890000e+001 4.690000e+001 6.000000e-001
    endloop
  endfacet
  facet normal 0.000000e+000 0.000000e+000 1.000000e+000
    outer loop
      vertex   -1.640000e+001 3.260000e+001 6.000000e-001
      vertex   -1.890000e+001 3.260000e+001 6.000000e-001
      vertex   -1.646099e+001 2.930000e+001 6.000000e-001
    endloop
  endfacet
  facet normal 0.000000e+000 0.000000e+000 1.000000e+000
    outer loop
      vertex   -1.646099e+001 2.930000e+001 6.000000e-001
      vertex   -1.890000e+001 3.260000e+001 6.000000e-001
      vertex   -1.890000e+001 2.930000e+001 6.000000e-001
    endloop
  endfacet
  facet normal 0.000000e+000 -0.000000e+000 -1.000000e+000
    outer loop
      vertex   -1.896099e+001 2.600000e+001 0.000000e+000
      vertex   -1.646099e+001 2.600000e+001 0.000000e+000
      vertex   -1.896099e+001 1.500000e+001 0.000000e+000
    endloop
  endfacet
  facet normal 0.000000e+000 0.000000e+000 -1.000000e+000
    outer loop
      vertex   -1.896099e+001 1.500000e+001 0.000000e+000
      vertex   -1.646099e+001 2.600000e+001 0.000000e+000
      vertex   -6.098877e-002 1.404947e-007 0.000000e+000
    endloop
  endfacet
  facet normal 0.000000e+000 0.000000e+000 -1.000000e+000
    outer loop
      vertex   -6.098877e-002 1.404947e-007 0.000000e+000
      vertex   -1.646099e+001 2.600000e+001 0.000000e+000
      vertex   -3.049445e-002 3.095000e+001 0.000000e+000
    endloop
  endfacet
  facet normal -0.000000e+000 0.000000e+000 -1.000000e+000
    outer loop
      vertex   -3.049445e-002 3.095000e+001 0.000000e+000
      vertex   -1.646099e+001 2.600000e+001 0.000000e+000
      vertex   -1.646099e+001 2.930000e+001 0.000000e+000
    endloop
  endfacet
  facet normal -0.000000e+000 0.000000e+000 -1.000000e+000
    outer loop
      vertex   -1.640000e+001 3.260000e+001 0.000000e+000
      vertex   -1.646099e+001 2.930000e+001 0.000000e+000
      vertex   -1.890000e+001 3.260000e+001 0.000000e+000
    endloop
  endfacet
  facet normal 0.000000e+000 -0.000000e+000 -1.000000e+000
    outer loop
      vertex   -1.640000e+001 3.260000e+001 0.000000e+000
      vertex   -3.049445e-002 3.095000e+001 0.000000e+000
      vertex   -1.646099e+001 2.930000e+001 0.000000e+000
    endloop
  endfacet
  facet normal 0.000000e+000 0.000000e+000 -1.000000e+000
    outer loop
      vertex   -1.640000e+001 3.260000e+001 0.000000e+000
      vertex   -1.640000e+001 3.590000e+001 0.000000e+000
      vertex   -3.049445e-002 3.095000e+001 0.000000e+000
    endloop
  endfacet
  facet normal 0.000000e+000 0.000000e+000 -1.000000e+000
    outer loop
      vertex   -3.049445e-002 3.095000e+001 0.000000e+000
      vertex   -1.640000e+001 3.590000e+001 0.000000e+000
      vertex   -1.404947e-007 6.190000e+001 0.000000e+000
    endloop
  endfacet
  facet normal -0.000000e+000 0.000000e+000 -1.000000e+000
    outer loop
      vertex   -1.404947e-007 6.190000e+001 0.000000e+000
      vertex   -1.640000e+001 3.590000e+001 0.000000e+000
      vertex   -1.890000e+001 4.690000e+001 0.000000e+000
    endloop
  endfacet
  facet normal -0.000000e+000 -0.000000e+000 -1.000000e+000
    outer loop
      vertex   -1.890000e+001 4.690000e+001 0.000000e+000
      vertex   -1.640000e+001 3.590000e+001 0.000000e+000
      vertex   -1.890000e+001 3.590000e+001 0.000000e+000
    endloop
  endfacet
  facet normal 0.000000e+000 0.000000e+000 -1.000000e+000
    outer loop
      vertex   -1.646099e+001 2.930000e+001 0.000000e+000
      vertex   -1.890000e+001 2.930000e+001 0.000000e+000
      vertex   -1.890000e+001 3.260000e+001 0.000000e+000
    endloop
  endfacet
endsolid
